<svg width="262" height="74" viewBox="0 0 262 74" fill="none" xmlns="http://www.w3.org/2000/svg">
<path d="M186.01 64.95C186.897 64.95 187.593 65.21 188.1 65.73C188.607 66.25 188.86 67.0033 188.86 67.99V72H188.35V69.84H183.67V72H183.16V67.99C183.16 67.0033 183.413 66.25 183.92 65.73C184.433 65.21 185.13 64.95 186.01 64.95ZM188.35 69.38V67.94C188.35 67.1133 188.143 66.4867 187.73 66.06C187.323 65.6333 186.75 65.42 186.01 65.42C185.27 65.42 184.693 65.6333 184.28 66.06C183.873 66.4867 183.67 67.1133 183.67 67.94V69.38H188.35ZM202.548 72L200.878 69.66C200.631 69.6933 200.404 69.71 200.198 69.71H198.198V72H197.688V65H200.198C201.078 65 201.768 65.21 202.268 65.63C202.768 66.0433 203.018 66.62 203.018 67.36C203.018 67.9133 202.874 68.38 202.588 68.76C202.308 69.1333 201.904 69.3967 201.378 69.55L203.128 72H202.548ZM200.198 69.26C200.944 69.26 201.514 69.0967 201.908 68.77C202.301 68.4367 202.498 67.9667 202.498 67.36C202.498 66.7533 202.301 66.2867 201.908 65.96C201.514 65.6267 200.944 65.46 200.198 65.46H198.198V69.26H200.198ZM215.585 66.11C214.885 65.6967 214.095 65.4667 213.215 65.42V72H212.695V65.42C211.848 65.4533 211.058 65.6833 210.325 66.11L210.125 65.7C210.978 65.2 211.918 64.95 212.945 64.95C213.985 64.95 214.932 65.2 215.785 65.7L215.585 66.11ZM224.678 65.46V71.54H226.148V72H222.698V71.54H224.168V65.46H222.698V65H226.148V65.46H224.678ZM236.104 72.05C235.591 72.05 235.101 71.9633 234.634 71.79C234.174 71.61 233.814 71.38 233.554 71.1L233.784 70.72C234.031 70.98 234.361 71.1933 234.774 71.36C235.194 71.52 235.634 71.6 236.094 71.6C236.761 71.6 237.264 71.4733 237.604 71.22C237.944 70.9667 238.114 70.6367 238.114 70.23C238.114 69.9167 238.024 69.6667 237.844 69.48C237.664 69.2933 237.441 69.15 237.174 69.05C236.907 68.95 236.547 68.8467 236.094 68.74C235.581 68.6133 235.167 68.49 234.854 68.37C234.547 68.25 234.284 68.0667 234.064 67.82C233.851 67.5667 233.744 67.23 233.744 66.81C233.744 66.47 233.834 66.16 234.014 65.88C234.194 65.5933 234.467 65.3667 234.834 65.2C235.207 65.0333 235.671 64.95 236.224 64.95C236.611 64.95 236.991 65.0067 237.364 65.12C237.737 65.2333 238.061 65.3867 238.334 65.58L238.144 65.99C237.864 65.7967 237.554 65.65 237.214 65.55C236.881 65.45 236.551 65.4 236.224 65.4C235.577 65.4 235.087 65.53 234.754 65.79C234.421 66.05 234.254 66.3867 234.254 66.8C234.254 67.1133 234.344 67.3633 234.524 67.55C234.704 67.7367 234.927 67.88 235.194 67.98C235.461 68.08 235.824 68.1867 236.284 68.3C236.797 68.4267 237.207 68.55 237.514 68.67C237.821 68.79 238.081 68.9733 238.294 69.22C238.514 69.46 238.624 69.7867 238.624 70.2C238.624 70.54 238.531 70.85 238.344 71.13C238.164 71.41 237.884 71.6333 237.504 71.8C237.124 71.9667 236.657 72.05 236.104 72.05ZM250.97 66.11C250.27 65.6967 249.48 65.4667 248.6 65.42V72H248.08V65.42C247.233 65.4533 246.443 65.6833 245.71 66.11L245.51 65.7C246.363 65.2 247.303 64.95 248.33 64.95C249.37 64.95 250.317 65.2 251.17 65.7L250.97 66.11Z" fill="#F7E9E9"/>
<path d="M3.416 9.4H4.844V27.712H16.128V29H3.416V9.4ZM45.6669 9.26C48.1496 9.26 50.1002 9.988 51.5189 11.444C52.9376 12.9 53.6469 15.0093 53.6469 17.772V29H52.2189V22.952H39.1149V29H37.6869V17.772C37.6869 15.0093 38.3962 12.9 39.8149 11.444C41.2522 9.988 43.2029 9.26 45.6669 9.26ZM52.2189 21.664V17.632C52.2189 15.3173 51.6402 13.5627 50.4829 12.368C49.3442 11.1733 47.7389 10.576 45.6669 10.576C43.5949 10.576 41.9802 11.1733 40.8229 12.368C39.6842 13.5627 39.1149 15.3173 39.1149 17.632V21.664H52.2189ZM83.5161 29.14C82.0788 29.14 80.7068 28.8973 79.4001 28.412C78.1121 27.908 77.1041 27.264 76.3761 26.48L77.0201 25.416C77.7108 26.144 78.6348 26.7413 79.7921 27.208C80.9681 27.656 82.2001 27.88 83.4881 27.88C85.3548 27.88 86.7641 27.5253 87.7161 26.816C88.6681 26.1067 89.1441 25.1827 89.1441 24.044C89.1441 23.1667 88.8921 22.4667 88.3881 21.944C87.8841 21.4213 87.2588 21.02 86.5121 20.74C85.7655 20.46 84.7575 20.1707 83.4881 19.872C82.0508 19.5173 80.8935 19.172 80.0161 18.836C79.1575 18.5 78.4201 17.9867 77.8041 17.296C77.2068 16.5867 76.9081 15.644 76.9081 14.468C76.9081 13.516 77.1601 12.648 77.6641 11.864C78.1681 11.0613 78.9335 10.4267 79.9601 9.96C81.0055 9.49333 82.3028 9.26 83.8521 9.26C84.9348 9.26 85.9988 9.41867 87.0441 9.736C88.0895 10.0533 88.9948 10.4827 89.7601 11.024L89.2281 12.172C88.4441 11.6307 87.5761 11.22 86.6241 10.94C85.6908 10.66 84.7668 10.52 83.8521 10.52C82.0415 10.52 80.6695 10.884 79.7361 11.612C78.8028 12.34 78.3361 13.2827 78.3361 14.44C78.3361 15.3173 78.5881 16.0173 79.0921 16.54C79.5961 17.0627 80.2215 17.464 80.9681 17.744C81.7148 18.024 82.7321 18.3227 84.0201 18.64C85.4575 18.9947 86.6055 19.34 87.4641 19.676C88.3228 20.012 89.0508 20.5253 89.6481 21.216C90.2641 21.888 90.5721 22.8027 90.5721 23.96C90.5721 24.912 90.3108 25.78 89.7881 26.564C89.2841 27.348 88.5001 27.9733 87.4361 28.44C86.3721 28.9067 85.0655 29.14 83.5161 29.14ZM119.311 19.34L114.915 23.848V29H113.487V9.4H114.915V22L127.151 9.4H128.887L120.263 18.304L129.475 29H127.739L119.311 19.34ZM158.773 9.26C161.255 9.26 163.206 9.988 164.625 11.444C166.043 12.9 166.753 15.0093 166.753 17.772V29H165.325V22.952H152.221V29H150.793V17.772C150.793 15.0093 151.502 12.9 152.921 11.444C154.358 9.988 156.309 9.26 158.773 9.26ZM165.325 21.664V17.632C165.325 15.3173 164.746 13.5627 163.589 12.368C162.45 11.1733 160.845 10.576 158.773 10.576C156.701 10.576 155.086 11.1733 153.929 12.368C152.79 13.5627 152.221 15.3173 152.221 17.632V21.664H165.325ZM212.078 9.26C214.281 9.26 215.998 9.89467 217.23 11.164C218.481 12.4333 219.106 14.2813 219.106 16.708V29H217.678V16.764C217.678 14.7107 217.165 13.1707 216.138 12.144C215.13 11.0987 213.711 10.576 211.882 10.576C210.015 10.576 208.559 11.1267 207.514 12.228C206.487 13.3107 205.974 14.9813 205.974 17.24V29H204.546V16.764C204.546 14.7107 204.042 13.1707 203.034 12.144C202.045 11.0987 200.645 10.576 198.834 10.576C196.949 10.576 195.483 11.1267 194.438 12.228C193.411 13.3107 192.898 14.9813 192.898 17.24V29H191.47V9.4H192.87V12.984C193.393 11.752 194.186 10.828 195.25 10.212C196.333 9.57733 197.621 9.26 199.114 9.26C200.738 9.26 202.101 9.61467 203.202 10.324C204.322 11.0333 205.106 12.06 205.554 13.404C206.058 12.0227 206.87 10.9867 207.99 10.296C209.129 9.60533 210.491 9.26 212.078 9.26ZM247.207 10.688V27.712H251.323V29H241.663V27.712H245.779V10.688H241.663V9.4H251.323V10.688H247.207Z" fill="#F7E9E9"/>
<path d="M0 45H254" stroke="#F7E9E9" stroke-width="2"/>
</svg>
